<svg xmlns="http://www.w3.org/2000/svg" version="1.1" xmlns:xlink="http://www.w3.org/1999/xlink" width="1000" height="1000"><g clip-path="url(#SvgjsClipPath1007)"><rect width="1000" height="1000" fill="#ffffff"></rect><g transform="matrix(0.6810862352471857,0,0,0.6810862352471857,150,325.737275849655)"><svg xmlns="http://www.w3.org/2000/svg" version="1.1" xmlns:xlink="http://www.w3.org/1999/xlink" width="1027.77" height="511.72"><svg id="Layer_1" xmlns="http://www.w3.org/2000/svg" version="1.1" viewBox="0 0 1027.77 511.72">
  <!-- Generator: Adobe Illustrator 29.8.0, SVG Export Plug-In . SVG Version: 2.1.1 Build 160)  -->
  <path d="M309.31,244.31h-128.95c0,24.03.87,46.32,2.6,66.87h129.39c0-24.02-1.02-46.31-3.04-66.87Z"></path>
  <path d="M195.55,207.84c11.87,9.55,28.51,14.33,49.93,14.33s37.56-4.77,49.28-14.33c11.72-9.55,17.59-23.88,17.59-42.98v-33.87h-53.41v23.45c0,5.21-1.16,8.98-3.47,11.29s-5.8,3.47-10.42,3.47-8.11-1.15-10.42-3.47c-2.32-2.31-3.47-6.08-3.47-11.29v-84.23c0-5.79,1.09-9.91,3.26-12.37,2.17-2.46,5.71-3.69,10.64-3.69s8.47,1.23,10.64,3.69,3.26,6.59,3.26,12.37c0,5.21-.29,9.99-.87,14.33s-1.02,7.67-1.3,9.99h53.41v-3.47c1.45-9.84,2.17-20.84,2.17-33,0-18.81-5.64-33-16.93-42.55-11.29-9.55-28.22-14.33-50.8-14.33s-39.01,4.85-50.15,14.55c-11.15,9.7-16.72,24.39-16.72,44.07v105.07c0,19.1,5.93,33.43,17.8,42.98h-.02Z"></path>
  <path d="M394.85,202.63h56.88v-63.39h-56.88v-67.73h63.83c2.61-19.1,3.91-41.39,3.91-66.87h-124.61v306.54h56.88v-108.55h0Z"></path>
  <path d="M555.5,187.43h53.41v-3.47c1.45-9.84,2.17-20.98,2.17-33.43,0-18.81-5.64-33-16.93-42.55s-28.22-14.33-50.8-14.33-39.01,4.93-50.15,14.76c-11.15,9.84-16.72,24.46-16.72,43.85v105.07c0,19.69,5.93,34.16,17.8,43.42,11.87,9.27,28.51,13.89,49.93,13.89s37.56-4.63,49.28-13.89c11.72-9.26,17.58-23.73,17.58-43.42v-33.87h-53.41v23.45c0,5.5-1.16,9.34-3.47,11.51-2.32,2.17-5.8,3.26-10.42,3.26s-8.11-1.09-10.42-3.26c-2.32-2.17-3.47-6.01-3.47-11.51v-83.8c0-5.79,1.09-9.99,3.26-12.59s5.71-3.91,10.64-3.91,8.47,1.3,10.64,3.91,3.26,6.81,3.26,12.59c0,5.21-.29,9.92-.87,14.11-.58,4.2-1.02,7.6-1.3,10.2h-.01Z"></path>
  <path d="M611.07,71.5c2.31-20.55,3.47-42.84,3.47-66.87h-141.55c0,24.03,1.15,46.32,3.47,66.87h134.61Z"></path>
  <path d="M742.59,105.65V33.11c0-10.59-2.78-18.76-8.33-24.5s-13.88-8.61-24.98-8.61-19.81,2.87-25.36,8.61-8.32,13.91-8.32,24.5v72.54c0,10.72,2.78,18.95,8.32,24.69,5.55,5.74,14,8.61,25.36,8.61s19.43-2.87,24.98-8.61,8.33-13.97,8.33-24.69ZM717.52,99.71c0,3.45-.7,5.93-2.11,7.46-1.4,1.53-3.51,2.3-6.32,2.3s-4.91-.77-6.31-2.3c-1.41-1.53-2.11-4.02-2.11-7.46v-60.48c0-3.32.7-5.77,2.11-7.37,1.4-1.59,3.51-2.39,6.31-2.39s4.91.8,6.32,2.39c1.4,1.6,2.11,4.05,2.11,7.37v60.48Z"></path>
  <path d="M783.93,0c-10.21,0-17.55,2.17-22.01,6.51-4.47,4.34-6.7,11.36-6.7,21.05v30.24c0,9.7,2.23,16.72,6.7,21.05,4.46,4.34,11.8,6.51,22.01,6.51s17.51-2.17,21.92-6.51c4.4-4.34,6.6-11.35,6.6-21.05v-30.24c0-9.7-2.2-16.72-6.6-21.05C801.45,2.17,794.14,0,783.93,0ZM791.2,42.68v12.25c0,5.49-2.43,8.23-7.27,8.23s-7.46-2.74-7.46-8.23v-24.5c0-5.49,2.49-8.23,7.46-8.23s7.27,2.74,7.27,8.23v12.25Z"></path>
  <path d="M852.64,0c-10.21,0-17.55,2.17-22.01,6.51-4.47,4.34-6.7,11.36-6.7,21.05v30.24c0,9.7,2.23,16.72,6.7,21.05,4.46,4.34,11.8,6.51,22.01,6.51s17.51-2.17,21.92-6.51c4.4-4.34,6.6-11.35,6.6-21.05v-30.24c0-9.7-2.2-16.72-6.6-21.05C870.16,2.17,862.85,0,852.64,0ZM859.91,42.68v12.25c0,5.49-2.43,8.23-7.27,8.23s-7.46-2.74-7.46-8.23v-24.5c0-5.49,2.49-8.23,7.46-8.23s7.27,2.74,7.27,8.23v12.25Z"></path>
  <path d="M921.35,85.36c10.21,0,17.51-2.17,21.92-6.51,4.4-4.34,6.6-11.35,6.6-21.05v-30.24c0-9.7-2.2-16.72-6.6-21.05C938.87,2.17,931.56,0,921.35,0s-17.55,2.17-22.01,6.51c-4.47,4.34-6.7,11.36-6.7,21.05v30.24c0,9.7,2.23,16.72,6.7,21.05,4.46,4.34,11.8,6.51,22.01,6.51h0ZM913.89,40.57v-10.14c0-5.49,2.49-8.23,7.46-8.23s7.27,2.74,7.27,8.23v24.5c0,5.49-2.43,8.23-7.27,8.23s-7.46-2.74-7.46-8.23v-14.36Z"></path>
  <path d="M1020.12,42.87c-5.11-5.1-13.4-7.65-24.88-7.65s-19.59,2.55-24.69,7.65c-5.1,5.11-7.66,13.15-7.66,24.12v40.19c0,10.98,2.55,19.01,7.66,24.12,5.1,5.11,13.33,7.66,24.69,7.66s19.78-2.55,24.88-7.66,7.65-13.14,7.65-24.12v-40.19c0-10.97-2.55-19.01-7.65-24.12ZM1003.27,87.28v15.69c0,3.06-.6,5.33-1.82,6.79-1.21,1.47-3.29,2.2-6.22,2.2-2.68,0-4.66-.73-5.93-2.2-1.28-1.46-1.91-3.73-1.91-6.79v-31.77c0-3.06.64-5.33,1.91-6.79,1.27-1.46,3.25-2.2,5.93-2.2,2.93,0,5.01.73,6.22,2.2s1.82,3.73,1.82,6.79v16.08Z"></path>
  <path d="M757.67,289.58c-6-17.1-8.99-35.41-8.99-54.93s3-37.83,8.99-54.93c6-17.1,12.37-31.32,19.14-42.68-5.36,0-10.43.13-15.22.38-4.78.26-8.39.64-10.81,1.15-7.02,10.34-13.3,23.48-18.85,39.43-5.55,15.95-8.32,34.83-8.32,56.65s2.78,40.71,8.32,56.65c5.55,15.95,11.83,29.09,18.85,39.43,2.42.51,6.03.89,10.81,1.15,4.79.25,9.86.38,15.22.38-6.77-11.36-13.14-25.59-19.14-42.68Z"></path>
  <path d="M944.08,138.56c-2.43-.51-6.03-.89-10.81-1.15-4.79-.25-9.86-.38-15.22-.38,6.76,11.36,13.11,25.58,19.04,42.68,5.93,17.1,8.9,35.41,8.9,54.93s-2.97,37.84-8.9,54.93c-5.94,17.1-12.28,31.32-19.04,42.68,5.36,0,10.43-.13,15.22-.38,4.79-.26,8.39-.64,10.81-1.15,7.02-10.34,13.3-23.48,18.85-39.43,5.55-15.95,8.33-34.83,8.33-56.65s-2.78-40.7-8.33-56.65c-5.55-15.95-11.83-29.09-18.85-39.43h0Z"></path>
  <path d="M809.22,347.19c-11.74,0-20.23.38-25.46,1.15-6.12,8.3-11.29,18.79-15.51,31.49-4.21,12.7-6.31,28.55-6.31,47.56s2.11,34.87,6.31,47.56c4.21,12.7,9.38,23.19,15.51,31.48,5.23.77,13.71,1.15,25.46,1.15-6.12-9.95-11.36-21.46-15.7-34.55-4.34-13.08-6.51-28.3-6.51-45.65s2.17-32.57,6.51-45.65,9.57-24.6,15.7-34.55h0Z"></path>
  <path d="M911.03,348.34c-5.36-.77-13.85-1.15-25.46-1.15,6,9.95,11.2,21.47,15.6,34.55,4.4,13.08,6.6,28.3,6.6,45.65s-2.2,32.57-6.6,45.65c-4.4,13.08-9.6,24.59-15.6,34.55,11.61,0,20.1-.38,25.46-1.15,6.12-8.3,11.26-18.79,15.41-31.48,4.14-12.7,6.22-28.55,6.22-47.56s-2.07-34.86-6.22-47.56c-4.15-12.7-9.28-23.19-15.41-31.49h0Z"></path>
  <polygon points="28.12 404.55 36.1 404.55 36.1 425.14 48.08 425.14 48.08 361.09 36.1 361.09 36.1 390.39 28.12 390.39 28.12 361.09 16.24 361.09 16.24 425.14 28.12 425.14 28.12 404.55"></polygon>
  <path d="M88.81,410.26v-34.38c0-5.02-1.31-8.89-3.95-11.61-2.63-2.72-6.58-4.08-11.84-4.08s-9.39,1.36-12.02,4.08-3.95,6.59-3.95,11.61v34.38c0,5.08,1.32,8.98,3.95,11.7s6.64,4.08,12.02,4.08,9.21-1.36,11.84-4.08c2.63-2.72,3.95-6.62,3.95-11.7ZM76.92,407.45c0,1.63-.33,2.81-1,3.54-.67.72-1.66,1.09-2.99,1.09s-2.33-.36-2.99-1.09c-.67-.73-1-1.91-1-3.54v-28.66c0-1.57.33-2.74,1-3.49.66-.76,1.66-1.13,2.99-1.13s2.33.38,2.99,1.13c.66.76,1,1.92,1,3.49v28.66Z"></path>
  <path d="M98.06,361.09v49.16c0,5.08,1.32,8.98,3.95,11.7s6.63,4.08,12.02,4.08,9.21-1.36,11.84-4.08,3.95-6.62,3.95-11.7v-49.16h-11.88v46.35c0,1.63-.33,2.81-1,3.54-.66.72-1.66,1.09-2.99,1.09s-2.33-.36-2.99-1.09-1-1.91-1-3.54v-46.35h-11.9Z"></path>
  <path d="M166.68,422.1c2.69-2.63,4.04-6.61,4.04-11.93v-4.54c0-2.66-.54-4.97-1.63-6.94-1.09-1.96-2.42-3.55-3.99-4.76-1.57-1.21-3.6-2.54-6.08-3.99-2.06-1.33-3.66-2.45-4.81-3.36-1.15-.91-2.13-2.01-2.95-3.31-.82-1.3-1.22-2.8-1.22-4.49s.38-2.83,1.13-3.58c.76-.76,1.86-1.13,3.31-1.13,1.57,0,2.72.38,3.45,1.13s1.09,1.98,1.09,3.67c0,1.39-.24,2.96-.72,4.72l-.18.82h11.7c.3-.79.53-2.04.68-3.76s.23-3.64.23-5.76c0-4.96-1.27-8.65-3.81-11.07s-6.68-3.63-12.43-3.63-9.9,1.38-12.47,4.13-3.86,6.97-3.86,12.65c0,3.81.65,7.02,1.95,9.61,1.3,2.6,2.84,4.64,4.63,6.12,1.78,1.48,4.03,3.04,6.76,4.67,2.54,1.63,4.4,3.02,5.58,4.17,1.18,1.15,1.77,2.63,1.77,4.44v2c0,1.51-.33,2.59-1,3.22-.66.64-1.66.95-2.99.95s-2.24-.33-2.9-1c-.67-.66-1-1.81-1-3.45v-5.9h-11.88v8.35c0,5.38,1.32,9.37,3.95,11.97,2.63,2.6,6.58,3.9,11.84,3.9s9.15-1.31,11.84-3.94l-.03.02Z"></path>
  <path d="M205,411.17h-14.06v-8.53h11.88v-13.34h-11.88v-14.24h13.33c.54-4.35.82-9.01.82-13.97h-26.04v64.04h26.76c0-2.84-.08-5.53-.23-8.07-.15-2.54-.35-4.5-.59-5.9h.01Z"></path>
  <polygon points="244.91 425.14 244.91 361.09 232.94 361.09 232.94 390.39 224.96 390.39 224.96 361.09 213.08 361.09 213.08 425.14 224.96 425.14 224.96 404.55 232.94 404.55 232.94 425.14 244.91 425.14"></polygon>
  <path d="M257.84,364.27c-2.63,2.72-3.95,6.59-3.95,11.61v34.38c0,5.08,1.32,8.98,3.95,11.7,2.63,2.72,6.64,4.08,12.02,4.08s9.21-1.36,11.83-4.08c2.63-2.72,3.95-6.62,3.95-11.7v-34.38c0-5.02-1.31-8.89-3.95-11.61-2.63-2.72-6.57-4.08-11.83-4.08s-9.39,1.36-12.02,4.08h0ZM273.76,378.78v28.66c0,1.63-.33,2.81-1,3.54-.67.72-1.67,1.09-3,1.09s-2.33-.36-2.99-1.09c-.67-.73-1-1.91-1-3.54v-28.66c0-1.57.33-2.74,1-3.49.66-.76,1.66-1.13,2.99-1.13s2.33.38,3,1.13c.66.76,1,1.92,1,3.49Z"></path>
  <path d="M319.93,411.17h-13.15v-50.07h-11.88v64.04h25.85c0-5.99-.27-10.64-.82-13.97Z"></path>
  <path d="M354.81,420.83c2.75-2.87,4.13-7.06,4.13-12.56v-30.3c0-5.5-1.38-9.69-4.13-12.56s-7.18-4.31-13.29-4.31h-14.43v64.04h14.43c6.11,0,10.54-1.44,13.29-4.31ZM338.98,394.84v-19.77h3.08c1.81,0,3.1.44,3.86,1.32.76.88,1.13,2.25,1.13,4.13v25.22c0,1.81-.38,3.17-1.13,4.08-.76.91-2.04,1.36-3.86,1.36h-3.08v-16.33h0Z"></path>
  <path d="M408.28,387.04h11.7l.18-.64c.6-3.26.91-6.77.91-10.52,0-5.5-1.23-9.5-3.68-11.97-2.45-2.48-6.57-3.72-12.38-3.72-5.5,0-9.55,1.27-12.16,3.81-2.6,2.54-3.9,6.59-3.9,12.16v34.19c0,5.26,1.36,9.19,4.08,11.79s6.65,3.9,11.79,3.9,9.07-1.3,11.79-3.9,4.08-6.53,4.08-11.79v-9.8h-11.88v6.89c0,1.7-.33,2.89-1,3.58-.67.7-1.66,1.04-2.99,1.04s-2.33-.35-2.99-1.04c-.67-.69-1-1.89-1-3.58v-28.21c0-1.81.33-3.11,1-3.9.66-.78,1.72-1.18,3.18-1.18s2.59.39,3.22,1.18c.63.79.95,2.09.95,3.9,0,2.06-.24,4.33-.72,6.81l-.18,1h0Z"></path>
  <path d="M460.44,425.14c0-15.3-.74-28.23-2.22-38.78-1.49-10.55-3.19-18.97-5.13-25.26h-17.69c-1.93,6.29-3.64,14.71-5.13,25.26s-2.22,23.48-2.22,38.78h11.97c0-3.59.06-7,.15-10.34h8.13c.09,3.34.15,6.75.15,10.34h11.99ZM440.86,400.92c.12-1.64.24-3.29.39-4.85.7-7.29,1.71-14.57,3-21.83,1.29,7.27,2.3,14.55,2.99,21.83.15,1.57.27,3.21.39,4.85h-6.77Z"></path>
  <path d="M488.47,425.14h12.43l-6.01-23.79c.45-.36.94-.68,1.34-1.1,2.87-3.05,4.31-7.18,4.31-12.38v-10.34c0-5.08-1.49-9.09-4.45-12.02-2.97-2.93-7.47-4.4-13.52-4.4h-13.7v64.04h11.89v-20.32h2.45c.18,0,.33-.03.51-.04l4.76,20.36h-.01ZM480.76,375.06h2.72c1.75,0,3.04.38,3.85,1.13s1.23,2.1,1.23,4.04v5.26c0,2-.41,3.39-1.23,4.17-.82.79-2.13,1.18-3.95,1.18h-2.63v-15.78h.01Z"></path>
  <path d="M531.91,396.29v-.18c2.72-1.09,4.66-2.4,5.81-3.94s1.72-3.82,1.72-6.85v-9.16c0-4.78-1.27-8.48-3.81-11.11-2.54-2.63-6.9-3.95-13.07-3.95h-13.7v64.04h15.78c3.93,0,7.13-.47,9.62-1.41,2.48-.93,4.32-2.51,5.53-4.72s1.81-5.19,1.81-8.93c0-4.41-.82-7.66-2.45-9.75s-4.05-3.43-7.26-4.04h.02ZM523.12,375.06c1.63,0,2.78.36,3.45,1.09.66.72,1,1.9,1,3.54v5.9c0,1.81-.36,3.07-1.09,3.76s-1.88,1.04-3.45,1.04h-2.27v-15.33h2.36ZM529.24,409.72c-.27.6-.71,1.01-1.31,1.22-.61.21-1.42.32-2.45.32h-4.72v-9.07h4.17c1.69,0,2.9.39,3.63,1.18.73.79,1.09,2.03,1.09,3.72,0,1.15-.14,2.03-.41,2.63h0Z"></path>
  <path d="M553.73,364.27c-2.63,2.72-3.95,6.59-3.95,11.61v34.38c0,5.08,1.32,8.98,3.95,11.7,2.63,2.72,6.63,4.08,12.02,4.08s9.21-1.36,11.84-4.08,3.95-6.62,3.95-11.7v-34.38c0-5.02-1.32-8.89-3.95-11.61s-6.58-4.08-11.84-4.08-9.39,1.36-12.02,4.08h0ZM569.65,378.78v28.66c0,1.63-.33,2.81-1,3.54-.66.72-1.66,1.09-2.99,1.09s-2.33-.36-2.99-1.09-1-1.91-1-3.54v-28.66c0-1.57.33-2.74,1-3.49s1.66-1.13,2.99-1.13,2.33.38,2.99,1.13,1,1.92,1,3.49Z"></path>
  <polygon points="610.65 425.14 622.63 425.14 622.63 361.09 610.65 361.09 610.65 380.33 599.22 361.09 590.78 361.09 590.78 425.14 602.67 425.14 602.67 387.85 610.65 400.82 610.65 425.14"></polygon>
  <path d="M16.69,510.8h8.07v-23.49h11.79v-9.8h-11.79v-20.41h13.34c.55-3.08.82-6.38.82-9.89h-22.22v63.59h-.01Z"></path>
  <path d="M58.78,446.3c-4.35,0-7.58,1.15-9.66,3.45s-3.13,5.66-3.13,10.07v38.37c0,4.41,1.04,7.77,3.13,10.07s5.31,3.45,9.66,3.45,7.5-1.15,9.61-3.45,3.18-5.66,3.18-10.07v-38.37c0-4.41-1.06-7.77-3.18-10.07s-5.32-3.45-9.61-3.45ZM63.5,481.23v15.24c0,1.94-.38,3.31-1.13,4.13-.76.82-1.95,1.22-3.58,1.22s-2.9-.41-3.63-1.22c-.72-.82-1.09-2.19-1.09-4.13v-35.01c0-1.81.36-3.14,1.09-3.99.73-.85,1.94-1.27,3.63-1.27s2.82.43,3.58,1.27c.76.85,1.13,2.18,1.13,3.99v19.77Z"></path>
  <path d="M94.43,446.3c-4.35,0-7.58,1.15-9.66,3.45s-3.13,5.66-3.13,10.07v38.37c0,4.41,1.04,7.77,3.13,10.07s5.31,3.45,9.66,3.45,7.5-1.15,9.61-3.45,3.18-5.66,3.18-10.07v-38.37c0-4.41-1.06-7.77-3.18-10.07s-5.32-3.45-9.61-3.45ZM99.15,481.23v15.24c0,1.94-.38,3.31-1.13,4.13-.76.82-1.95,1.22-3.58,1.22s-2.9-.41-3.63-1.22c-.72-.82-1.09-2.19-1.09-4.13v-35.01c0-1.81.36-3.14,1.09-3.99s1.94-1.27,3.63-1.27,2.82.43,3.58,1.27c.76.85,1.13,2.18,1.13,3.99v19.77Z"></path>
  <path d="M112.8,452.7c.09,1.54.2,2.8.32,3.76.06.18.09.39.09.64h8.17v53.7h8.07v-53.7h8.16c.06-.24.09-.45.09-.64.12-.97.23-2.22.32-3.76.09-1.54.14-3.37.14-5.49h-25.49c0,2.12.04,3.95.14,5.49h-.01Z"></path>
  <path d="M156.47,447.21h-10.61v63.59h8.07v-23.86h3.17c4.96,0,8.57-1.15,10.84-3.45,2.26-2.3,3.4-5.71,3.4-10.25v-12.43c0-4.41-1.23-7.78-3.68-10.11-2.45-2.33-6.18-3.49-11.2-3.49h.01ZM163.37,471.88c0,1.81-.44,3.13-1.32,3.95s-2.28,1.23-4.22,1.23h-3.9v-19.96h3.9c1.93,0,3.34.42,4.22,1.27s1.32,2.12,1.32,3.81v9.71h0Z"></path>
  <path d="M201.56,484.72c2.24-2.51,3.36-6.18,3.36-11.02v-12.24c0-4.66-1.19-8.19-3.58-10.61-2.39-2.42-6.1-3.63-11.11-3.63h-10.8v63.59h8.07v-22.31h3.35c.19,0,.35-.03.53-.04l5.36,22.35h8.53l-5.87-24.32c.81-.5,1.54-1.07,2.15-1.76h.01ZM187.5,457.1h3.54c2,0,3.48.45,4.45,1.36s1.45,2.42,1.45,4.54v9.25c0,2.42-.49,4.1-1.45,5.03-.97.94-2.51,1.41-4.63,1.41h-3.35v-21.59h-.01Z"></path>
  <rect x="214.71" y="447.21" width="8.26" height="63.59"></rect>
  <polygon points="252.08 470.16 240.47 447.21 234.39 447.21 234.39 510.8 242.47 510.8 242.47 467.08 252.08 485.31 252.08 510.8 260.06 510.8 260.06 447.21 252.08 447.21 252.08 470.16"></polygon>
  <path d="M266.37,452.7c.09,1.54.19,2.8.32,3.76.06.18.09.39.09.64h8.16v53.7h8.07v-53.7h8.16c.06-.24.09-.45.09-.64.12-.97.23-2.22.32-3.76.09-1.54.14-3.37.14-5.49h-25.49c0,2.12.05,3.95.14,5.49h0Z"></path>
  <path d="M334.53,471.16h7.89l.09-.45c.66-3.87,1-7.5,1-10.88,0-4.84-1.03-8.3-3.08-10.39-2.06-2.09-5.35-3.13-9.89-3.13s-7.61,1.12-9.75,3.36c-2.15,2.24-3.22,5.9-3.22,10.98v37.74c0,4.6,1.13,7.97,3.4,10.11,2.27,2.15,5.4,3.22,9.39,3.22s7.04-1.07,9.34-3.22c2.3-2.14,3.45-5.52,3.45-10.11v-9.61h-8.07v7.98c0,1.87-.41,3.19-1.22,3.95s-1.98,1.13-3.49,1.13-2.75-.38-3.54-1.13c-.79-.76-1.18-2.07-1.18-3.95v-34.83c0-2.05.38-3.52,1.13-4.4.76-.87,2.01-1.32,3.76-1.32,1.87,0,3.16.43,3.85,1.27s1.04,2.33,1.04,4.44c0,2.48-.21,5.2-.63,8.17l-.27,1.09v-.02Z"></path>
  <path d="M370.18,447.21h-11.7c-1.87,6.41-3.55,14.82-5.03,25.22-1.48,10.4-2.22,23.19-2.22,38.37h8.07c0-4.37.09-8.5.21-12.52h9.72c.13,4.01.22,8.15.22,12.52h8.07c0-15.18-.74-27.97-2.22-38.37s-3.19-18.81-5.13-25.22h.01ZM359.97,488.49c.19-3.02.41-5.97.69-8.76.81-8.11,2.05-15.88,3.67-23.35,1.63,7.46,2.88,15.23,3.72,23.35.29,2.79.51,5.73.71,8.76h-8.8,0Z"></path>
  <path d="M394.76,500.91v-53.7h-8.07v63.59h22.04c0-4.66-.27-7.95-.82-9.89h-13.15Z"></path>
  <path d="M431.77,471.16h7.89l.09-.45c.66-3.87,1-7.5,1-10.88,0-4.84-1.03-8.3-3.08-10.39-2.06-2.09-5.35-3.13-9.89-3.13s-7.6,1.12-9.75,3.36-3.22,5.9-3.22,10.98v37.74c0,4.6,1.13,7.97,3.4,10.11,2.27,2.15,5.4,3.22,9.39,3.22s7.04-1.07,9.34-3.22c2.3-2.14,3.45-5.52,3.45-10.11v-9.61h-8.07v7.98c0,1.87-.41,3.19-1.23,3.95s-1.98,1.13-3.49,1.13-2.75-.38-3.54-1.13c-.78-.76-1.18-2.07-1.18-3.95v-34.83c0-2.05.38-3.52,1.13-4.4.76-.87,2.01-1.32,3.76-1.32,1.87,0,3.16.43,3.86,1.27.69.85,1.04,2.33,1.04,4.44,0,2.48-.21,5.2-.64,8.17l-.27,1.09v-.02Z"></path>
  <path d="M466.7,496.47c0,1.94-.38,3.31-1.13,4.13-.76.82-1.95,1.22-3.58,1.22s-2.9-.41-3.63-1.22c-.72-.82-1.09-2.19-1.09-4.13v-49.25h-8.07v50.98c0,4.41,1.04,7.77,3.13,10.07s5.31,3.45,9.66,3.45,7.5-1.15,9.61-3.45,3.18-5.66,3.18-10.07v-50.98h-8.07v49.25h0Z"></path>
  <path d="M492.91,500.91v-53.7h-8.07v63.59h22.04c0-4.66-.28-7.95-.82-9.89h-13.15,0Z"></path>
  <path d="M531.92,447.21h-11.7c-1.88,6.41-3.55,14.82-5.04,25.22-1.48,10.4-2.22,23.19-2.22,38.37h8.07c0-4.37.09-8.5.21-12.52h9.72c.13,4.01.22,8.15.22,12.52h8.07c0-15.18-.74-27.97-2.22-38.37s-3.19-18.81-5.13-25.22h.02ZM521.7,488.49c.19-3.02.41-5.97.69-8.76.81-8.11,2.05-15.88,3.67-23.34,1.63,7.46,2.88,15.23,3.72,23.34.29,2.79.51,5.73.71,8.76h-8.8.01Z"></path>
  <path d="M541.76,452.7c.09,1.54.2,2.8.32,3.76.06.18.09.39.09.64h8.16v53.7h8.07v-53.7h8.16c.06-.24.09-.45.09-.64.12-.97.23-2.22.32-3.76.09-1.54.14-3.37.14-5.49h-25.49c0,2.12.05,3.95.14,5.49h0Z"></path>
  <path d="M585.43,446.3c-4.35,0-7.57,1.15-9.66,3.45-2.09,2.3-3.13,5.66-3.13,10.07v38.37c0,4.41,1.04,7.77,3.13,10.07,2.08,2.3,5.31,3.45,9.66,3.45s7.5-1.15,9.62-3.45c2.11-2.3,3.17-5.66,3.17-10.07v-38.37c0-4.41-1.06-7.77-3.17-10.07-2.12-2.3-5.32-3.45-9.62-3.45ZM590.15,481.23v15.24c0,1.94-.38,3.31-1.13,4.13-.76.82-1.95,1.22-3.58,1.22s-2.9-.41-3.63-1.22c-.72-.82-1.09-2.19-1.09-4.13v-35.01c0-1.81.36-3.14,1.09-3.99s1.93-1.27,3.63-1.27,2.83.43,3.58,1.27c.76.85,1.13,2.18,1.13,3.99v19.77Z"></path>
  <path d="M630.43,484.72c2.24-2.51,3.36-6.18,3.36-11.02v-12.24c0-4.66-1.19-8.19-3.58-10.61s-6.09-3.63-11.11-3.63h-10.8v63.59h8.07v-22.31h3.36c.19,0,.35-.03.53-.04l5.36,22.35h8.53l-5.87-24.32c.81-.5,1.54-1.07,2.15-1.76h0ZM616.37,457.1h3.54c1.99,0,3.47.45,4.45,1.36.97.91,1.45,2.42,1.45,4.54v9.25c0,2.42-.48,4.1-1.45,5.03-.97.94-2.51,1.41-4.63,1.41h-3.36v-21.59h0Z"></path>
  <polygon points="153.76 99.65 98.41 99.65 98.41 192.05 70.95 192.05 70.95 99.65 16.46 99.65 16.46 313.22 70.95 313.22 70.95 250.46 98.41 250.46 98.41 313.22 153.76 313.22 153.76 99.65"></polygon>
  <path d="M153.76,73.94c2.32-20.92,3.49-43.87,3.49-68.86H12.98c0,24.99,1.16,47.94,3.49,68.86h137.29Z"></path>
</svg></svg></g></g><defs><clipPath id="SvgjsClipPath1007"><rect width="1000" height="1000" x="0" y="0" rx="350" ry="350"></rect></clipPath></defs></svg>